<mxfile host="Electron" modified="2023-11-29T05:38:40.157Z" agent="Mozilla/5.0 (Windows NT 10.0; Win64; x64) AppleWebKit/537.36 (KHTML, like Gecko) draw.io/22.0.0 Chrome/114.0.5735.289 Electron/25.8.3 Safari/537.36" etag="XYC5XFWNCbvXS3fMipFr" version="22.0.0" type="device">
  <diagram name="Page-1" id="ILFwwLQn4rlPoiTQhXq9">
    <mxGraphModel dx="1036" dy="606" grid="1" gridSize="10" guides="1" tooltips="1" connect="1" arrows="1" fold="1" page="1" pageScale="1" pageWidth="827" pageHeight="1169" math="0" shadow="0">
      <root>
        <mxCell id="0" />
        <mxCell id="1" parent="0" />
        <mxCell id="53R8YZ_QFolmdbLBiPOs-6" style="edgeStyle=orthogonalEdgeStyle;rounded=0;sketch=1;hachureGap=4;jiggle=2;curveFitting=1;orthogonalLoop=1;jettySize=auto;html=1;exitX=0.5;exitY=0;exitDx=0;exitDy=0;exitPerimeter=0;entryX=0;entryY=0.5;entryDx=0;entryDy=0;fontFamily=Architects Daughter;fontSource=https%3A%2F%2Ffonts.googleapis.com%2Fcss%3Ffamily%3DArchitects%2BDaughter;fontSize=16;" edge="1" parent="1" source="53R8YZ_QFolmdbLBiPOs-1" target="53R8YZ_QFolmdbLBiPOs-2">
          <mxGeometry relative="1" as="geometry" />
        </mxCell>
        <mxCell id="53R8YZ_QFolmdbLBiPOs-1" value="Topic" style="shape=cylinder3;whiteSpace=wrap;html=1;boundedLbl=1;backgroundOutline=1;size=15;sketch=1;hachureGap=4;jiggle=2;curveFitting=1;fontFamily=Architects Daughter;fontSource=https%3A%2F%2Ffonts.googleapis.com%2Fcss%3Ffamily%3DArchitects%2BDaughter;fontSize=15;rotation=90;horizontal=0;fontStyle=1;fillColor=#dae8fc;strokeColor=#6c8ebf;" vertex="1" parent="1">
          <mxGeometry x="140" y="250" width="40" height="100" as="geometry" />
        </mxCell>
        <mxCell id="53R8YZ_QFolmdbLBiPOs-10" style="edgeStyle=orthogonalEdgeStyle;rounded=0;sketch=1;hachureGap=4;jiggle=2;curveFitting=1;orthogonalLoop=1;jettySize=auto;html=1;exitX=1;exitY=0.5;exitDx=0;exitDy=0;entryX=0;entryY=0.5;entryDx=0;entryDy=0;fontFamily=Architects Daughter;fontSource=https%3A%2F%2Ffonts.googleapis.com%2Fcss%3Ffamily%3DArchitects%2BDaughter;fontSize=16;" edge="1" parent="1" source="53R8YZ_QFolmdbLBiPOs-2" target="53R8YZ_QFolmdbLBiPOs-9">
          <mxGeometry relative="1" as="geometry" />
        </mxCell>
        <mxCell id="53R8YZ_QFolmdbLBiPOs-2" value="&lt;b style=&quot;font-size: 15px;&quot;&gt;Source&lt;br&gt;Processor&lt;/b&gt;" style="rounded=0;whiteSpace=wrap;html=1;sketch=1;hachureGap=4;jiggle=2;curveFitting=1;fontFamily=Architects Daughter;fontSource=https%3A%2F%2Ffonts.googleapis.com%2Fcss%3Ffamily%3DArchitects%2BDaughter;fontSize=20;fillColor=#f8cecc;strokeColor=#b85450;" vertex="1" parent="1">
          <mxGeometry x="230" y="275" width="100" height="50" as="geometry" />
        </mxCell>
        <mxCell id="53R8YZ_QFolmdbLBiPOs-4" value="&lt;b style=&quot;font-size: 15px;&quot;&gt;Sink&lt;br&gt;Processor&lt;/b&gt;" style="rounded=0;whiteSpace=wrap;html=1;sketch=1;hachureGap=4;jiggle=2;curveFitting=1;fontFamily=Architects Daughter;fontSource=https%3A%2F%2Ffonts.googleapis.com%2Fcss%3Ffamily%3DArchitects%2BDaughter;fontSize=20;fillColor=#f8cecc;strokeColor=#b85450;" vertex="1" parent="1">
          <mxGeometry x="498" y="275" width="100" height="50" as="geometry" />
        </mxCell>
        <mxCell id="53R8YZ_QFolmdbLBiPOs-5" value="Topic" style="shape=cylinder3;whiteSpace=wrap;html=1;boundedLbl=1;backgroundOutline=1;size=15;sketch=1;hachureGap=4;jiggle=2;curveFitting=1;fontFamily=Architects Daughter;fontSource=https%3A%2F%2Ffonts.googleapis.com%2Fcss%3Ffamily%3DArchitects%2BDaughter;fontSize=15;rotation=90;horizontal=0;fontStyle=1;fillColor=#dae8fc;strokeColor=#6c8ebf;" vertex="1" parent="1">
          <mxGeometry x="658" y="250" width="40" height="100" as="geometry" />
        </mxCell>
        <mxCell id="53R8YZ_QFolmdbLBiPOs-8" style="edgeStyle=orthogonalEdgeStyle;rounded=0;sketch=1;hachureGap=4;jiggle=2;curveFitting=1;orthogonalLoop=1;jettySize=auto;html=1;exitX=1;exitY=0.5;exitDx=0;exitDy=0;entryX=0.5;entryY=1;entryDx=0;entryDy=0;entryPerimeter=0;fontFamily=Architects Daughter;fontSource=https%3A%2F%2Ffonts.googleapis.com%2Fcss%3Ffamily%3DArchitects%2BDaughter;fontSize=16;" edge="1" parent="1" source="53R8YZ_QFolmdbLBiPOs-4" target="53R8YZ_QFolmdbLBiPOs-5">
          <mxGeometry relative="1" as="geometry" />
        </mxCell>
        <mxCell id="53R8YZ_QFolmdbLBiPOs-11" style="edgeStyle=orthogonalEdgeStyle;rounded=0;sketch=1;hachureGap=4;jiggle=2;curveFitting=1;orthogonalLoop=1;jettySize=auto;html=1;exitX=1;exitY=0.5;exitDx=0;exitDy=0;entryX=0;entryY=0.5;entryDx=0;entryDy=0;fontFamily=Architects Daughter;fontSource=https%3A%2F%2Ffonts.googleapis.com%2Fcss%3Ffamily%3DArchitects%2BDaughter;fontSize=16;" edge="1" parent="1" source="53R8YZ_QFolmdbLBiPOs-9" target="53R8YZ_QFolmdbLBiPOs-4">
          <mxGeometry relative="1" as="geometry" />
        </mxCell>
        <mxCell id="53R8YZ_QFolmdbLBiPOs-9" value="&lt;font style=&quot;font-size: 15px;&quot;&gt;&lt;span style=&quot;&quot;&gt;mapValue()&lt;br&gt;&lt;/span&gt;processor&lt;/font&gt;" style="rounded=0;whiteSpace=wrap;html=1;sketch=1;hachureGap=4;jiggle=2;curveFitting=1;fontFamily=Architects Daughter;fontSource=https%3A%2F%2Ffonts.googleapis.com%2Fcss%3Ffamily%3DArchitects%2BDaughter;fontSize=20;fillColor=#f8cecc;strokeColor=#b85450;fontStyle=1" vertex="1" parent="1">
          <mxGeometry x="364" y="275" width="100" height="50" as="geometry" />
        </mxCell>
      </root>
    </mxGraphModel>
  </diagram>
</mxfile>
